<svg id="Layer_1" data-name="Layer 1" xmlns="http://www.w3.org/2000/svg" xmlns:xlink="http://www.w3.org/1999/xlink" viewBox="0 0 157 154"><defs><style>.cls-1{fill:url(#linear-gradient);}.cls-2{fill:#176982;}</style><linearGradient id="linear-gradient" x1="1" y1="77.13" x2="156" y2="77.13" gradientUnits="userSpaceOnUse"><stop offset="0" stop-color="#58e4fe"/><stop offset="0.24" stop-color="#52dffe"/><stop offset="0.58" stop-color="#40d0fe"/><stop offset="0.96" stop-color="#23b8fd"/><stop offset="1" stop-color="#20b5fd"/></linearGradient></defs><title>call</title><path class="cls-1" d="M23.74,21.12s69.41-58.21,120,24.66c0,0,49.58,82.87-50.58,105.55C55.47,159.23,24.73,138.51,8.87,101,.93,81.29-9,46.77,23.74,21.12Z"/><path class="cls-2" d="M101.09,86.71a7.66,7.66,0,0,0-5.55-2.55,7.92,7.92,0,0,0-5.62,2.53l-5.19,5.18c-.42-.23-.85-.45-1.26-.66-.59-.3-1.15-.58-1.63-.87A56.26,56.26,0,0,1,68.33,78a33.4,33.4,0,0,1-4.44-7c1.35-1.23,2.6-2.52,3.81-3.75l1.38-1.39c3.45-3.45,3.45-7.92,0-11.37L64.6,50c-.51-.51-1-1-1.53-1.56-1-1-2-2.07-3.08-3A7.79,7.79,0,0,0,54.48,43a8,8,0,0,0-5.58,2.42l0,0-5.59,5.63a12,12,0,0,0-3.56,7.64,28.9,28.9,0,0,0,2.1,12.18,70.71,70.71,0,0,0,12.57,21A77.33,77.33,0,0,0,80.12,112c3.77,1.79,8.82,3.9,14.45,4.26.34,0,.71,0,1,0a12.41,12.41,0,0,0,9.48-4.07s0,0,.06-.09a38,38,0,0,1,2.88-3c.7-.67,1.43-1.38,2.13-2.12a8.17,8.17,0,0,0,2.48-5.68,7.87,7.87,0,0,0-2.53-5.63ZM107,104s0,0,0,0c-.64.69-1.3,1.32-2,2a45.28,45.28,0,0,0-3.17,3.29,7.91,7.91,0,0,1-6.17,2.61c-.25,0-.51,0-.76,0-4.87-.31-9.41-2.21-12.8-3.84a73,73,0,0,1-24.24-19A66.71,66.71,0,0,1,46,69.37a23.66,23.66,0,0,1-1.84-10.28,7.59,7.59,0,0,1,2.27-4.88l5.6-5.6a3.76,3.76,0,0,1,2.5-1.16,3.47,3.47,0,0,1,2.39,1.15l.05,0c1,.94,2,1.91,3,2.94l1.56,1.6L66,57.66C67.7,59.4,67.7,61,66,62.75c-.47.48-.93,1-1.41,1.41-1.38,1.42-2.69,2.73-4.12,4,0,0-.07,0-.08.08A3.35,3.35,0,0,0,59.49,72l0,.15a36.12,36.12,0,0,0,5.31,8.65v0A60.45,60.45,0,0,0,79.44,94.07c.68.42,1.37.77,2,1.1a17.4,17.4,0,0,1,1.63.87l.2.11a3.36,3.36,0,0,0,4.12-.72L93,89.81a3.72,3.72,0,0,1,2.47-1.23,3.35,3.35,0,0,1,2.37,1.2l0,0,9,9C108.64,100.54,108.64,102.26,107,104Z"/><path class="cls-2" d="M81.65,57a21.11,21.11,0,0,1,17.2,17.21A2.22,2.22,0,0,0,101,76.07c.13,0,.25,0,.38,0a2.23,2.23,0,0,0,1.82-2.57A25.55,25.55,0,0,0,82.42,52.65a2.22,2.22,0,0,0-2.56,1.81A2.18,2.18,0,0,0,81.65,57Z"/><path class="cls-2" d="M117.31,72.83A42.06,42.06,0,0,0,83,38.55a2.2,2.2,0,0,0-2.54,1.8,2.22,2.22,0,0,0,1.82,2.56,37.58,37.58,0,0,1,30.64,30.65,2.22,2.22,0,0,0,2.19,1.84,2.58,2.58,0,0,0,.38,0A2.17,2.17,0,0,0,117.31,72.83Z"/></svg>