<?xml version="1.0" encoding="utf-8"?>
<!-- Generator: Adobe Illustrator 22.0.1, SVG Export Plug-In . SVG Version: 6.00 Build 0)  -->
<svg version="1.1" id="Layer_1" xmlns="http://www.w3.org/2000/svg" xmlns:xlink="http://www.w3.org/1999/xlink" x="0px" y="0px"
	 viewBox="0 0 100 100" style="enable-background:new 0 0 100 100;" xml:space="preserve">
<style type="text/css">
	.st0{fill:#66BB46;}
	.st1{fill:#FFFFFF;}
</style>
<g>
	<g>
		<g>
			<g>
				<g>
					<g>
						<g>
							<g>
								<path class="st0" d="M98.5,50C98.5,23.2,76.8,1.5,50,1.5S1.5,23.2,1.5,50S23.2,98.5,50,98.5S98.5,76.8,98.5,50z"/>
							</g>
						</g>
					</g>
				</g>
			</g>
		</g>
	</g>
	<g>
		<g>
			<path class="st1" d="M76.7,33.8c-1.1-2.9-3.5-2.5-6-2c-1.5,0.3-8.2,2.3-18.8,13.4c-4.4,4.6-7.3,8.3-9.2,11.1
				c-1.2-1.4-2.5-3-3.9-4.4c-4.3-4.3-9.1-7.3-9.3-7.4c-2-1.2-4.6-0.6-5.9,1.4c-1.2,2-0.6,4.6,1.4,5.9c0,0,4.2,2.6,7.7,6.2
				c3.6,3.6,6.9,8.6,7,8.6c0.8,1.2,2.1,1.9,3.6,1.9c0.2,0,0.5,0,0.7-0.1c1.7-0.3,3-1.5,3.4-3.2c0,0,1.7-4.7,10.7-14.2
				c7.2-7.6,12.1-10.1,13.7-10.7c0,0,0,0,0.1,0c0,0,0.1,0,0.2-0.1c0.3-0.1,0.4-0.2,0.4-0.2c-0.1,0-0.1,0-0.1,0v0
				c0.8-0.3,2.2-1,2.2-1C76.8,38.3,77.5,36,76.7,33.8z"/>
		</g>
	</g>
</g>
</svg>
