<?xml version="1.0" encoding="utf-8"?>
<!-- Generator: Adobe Illustrator 22.0.1, SVG Export Plug-In . SVG Version: 6.00 Build 0)  -->
<svg version="1.1" id="Layer_1" xmlns="http://www.w3.org/2000/svg" xmlns:xlink="http://www.w3.org/1999/xlink" x="0px" y="0px"
	 viewBox="0 0 20 21" style="enable-background:new 0 0 20 21;" xml:space="preserve">
<style type="text/css">
	.st0{opacity:0.9089;}
	.st1{fill:#66BB46;}
	.st2{fill:#F7F9FC;}
</style>
<g transform="translate(-1.083985 -.785546)" class="st0">
	
		<image style="overflow:visible;opacity:0.15;enable-background:new    ;" width="317" height="317" xlink:href="FB0E9F3F3EAA1916.png"  transform="matrix(6.659207e-02 0 0 6.659207e-02 0.2658 0.12)">
	</image>
	<g>
		<circle class="st1" cx="10.8" cy="10.2" r="9.3"/>
		<path class="st2" d="M15.1,6.3l-4.3,7.4v0c-0.2,0.4-0.7,0.5-1,0.3c-0.1-0.1-0.1-0.1-0.2-0.2l-2.7-3.3c-0.1-0.2-0.1-0.4,0.1-0.6
			c0.2-0.1,0.4-0.1,0.5,0l3.3,2.7l-1.2,0.1l5.2-6.8c0.1-0.1,0.3-0.1,0.4-0.1C15.1,6,15.1,6.2,15.1,6.3z"/>
	</g>
</g>
</svg>
