<svg id="Layer_1" data-name="Layer 1" xmlns="http://www.w3.org/2000/svg" xmlns:xlink="http://www.w3.org/1999/xlink" viewBox="0 0 157 154"><defs><style>.cls-1{fill:url(#linear-gradient);}.cls-2{fill:#0c5f4d;}</style><linearGradient id="linear-gradient" x1="0.92" y1="77.12" x2="157" y2="77.12" gradientUnits="userSpaceOnUse"><stop offset="0" stop-color="#15ffa0"/><stop offset="1" stop-color="#29aa00"/></linearGradient></defs><title>money</title><path class="cls-1" d="M1.47,83C-1.35,45.17,6.26,34,32.7,12.69c.85-.54,1.59-1.23,2.41-1.81,22.78-17.26,42-6.64,49.55-3.8s56.42,24,67.89,55.76-2.87,52.88-2.87,52.88-12.43,25-66.93,35.57S4.34,121.49,1.47,83Z"/><path class="cls-2" d="M106.45,40.84a1.39,1.39,0,0,0-1-.43H71a1.42,1.42,0,0,0-1.4,1.44V46L56.37,49.67a1.45,1.45,0,0,0-1,1.77l6.87,26.49-5.94,6.15a4.18,4.18,0,0,0-3.47-1.9H39.4a4.27,4.27,0,0,0-4.19,4.34v23.56a4.27,4.27,0,0,0,4.19,4.33H52.84a4.22,4.22,0,0,0,4.07-3.29l1.67,1.5a6.89,6.89,0,0,0,4.63,1.79h42.25a1.42,1.42,0,0,0,1.4-1.44V41.86A1.48,1.48,0,0,0,106.45,40.84ZM54.24,110.08a1.42,1.42,0,0,1-1.4,1.44H39.4A1.41,1.41,0,0,1,38,110.08V86.52a1.41,1.41,0,0,1,1.39-1.44h5.32v16.64a1.4,1.4,0,1,0,2.8,0V85.08h5.32a1.42,1.42,0,0,1,1.4,1.44v23.56Zm4.2-58L69.63,49v5.35l-.93.26a1.37,1.37,0,0,0-.85.68,1.43,1.43,0,0,0-.14,1.09A3.92,3.92,0,0,1,65,61.14a1.42,1.42,0,0,0-.85.67,1.56,1.56,0,0,0-.14,1.1l5.46,20.86H66.7l-1.45-5.85a1.75,1.75,0,0,0-.23-.5ZM69.63,61v12.2l-2.55-9.76A6.58,6.58,0,0,0,69.63,61Zm20.11,50.55H63.21a4.15,4.15,0,0,1-2.79-1.08l-3.38-3v-20l6.11-6.31,1.11,4.48a1.39,1.39,0,0,0,1.35,1.08H93.13a2,2,0,0,1,0,4H79a1.45,1.45,0,0,0,0,2.89H97.51a2,2,0,0,1,0,4.05H79a1.45,1.45,0,0,0,0,2.89H94.51a2,2,0,0,1,0,4H79a1.45,1.45,0,0,0,0,2.89H89.74a2,2,0,0,1,0,4Zm14.32,0h-10a5,5,0,0,0,0-4h.44a4.85,4.85,0,0,0,4.76-4.92,5.07,5.07,0,0,0-.5-2.2,4.88,4.88,0,0,0,3.49-4.73,5,5,0,0,0-.93-2.93V74.38a1.4,1.4,0,1,0-2.8,0V90.83a4.31,4.31,0,0,0-1-.12h-.05a5,5,0,0,0,.42-2,4.84,4.84,0,0,0-4.75-4.92H90.88a6.92,6.92,0,0,0,4.06-6.36,6.7,6.7,0,1,0-13.39,0,6.93,6.93,0,0,0,4.06,6.36H78V56.29a6.69,6.69,0,0,0,5-5.18H93.51a6.69,6.69,0,0,0,5,5.18v4.5a1.4,1.4,0,1,0,2.8,0V55a1.42,1.42,0,0,0-1.4-1.44,3.84,3.84,0,0,1-3.77-3.89,1.43,1.43,0,0,0-1.4-1.45h-13a1.43,1.43,0,0,0-1.4,1.45,3.84,3.84,0,0,1-3.76,3.89A1.41,1.41,0,0,0,75.17,55V83.77H72.43V43.31h31.63ZM88.25,81.44a4,4,0,1,1,3.89-4A4,4,0,0,1,88.25,81.44Z"/></svg>