<?xml version="1.0" encoding="utf-8"?>
<!-- Generator: Adobe Illustrator 22.0.1, SVG Export Plug-In . SVG Version: 6.00 Build 0)  -->
<svg version="1.1" id="Layer_1" xmlns="http://www.w3.org/2000/svg" xmlns:xlink="http://www.w3.org/1999/xlink" x="0px" y="0px"
	 viewBox="0 0 157 154" style="enable-background:new 0 0 157 154;" xml:space="preserve">
<style type="text/css">
	.st0{fill:url(#SVGID_1_);}
	.st1{fill:#0C5F4D;}
</style>
<title>money</title>
<linearGradient id="SVGID_1_" gradientUnits="userSpaceOnUse" x1="0.9174" y1="78.8786" x2="156.9971" y2="78.8786" gradientTransform="matrix(1 0 0 -1 0 156)">
	<stop  offset="0" style="stop-color:#7FE857"/>
	<stop  offset="1" style="stop-color:#5CA93F"/>
</linearGradient>
<path class="st0" d="M1.5,83c-2.8-37.8,4.8-49,31.2-70.3c0.8-0.5,1.6-1.2,2.4-1.8c22.8-17.3,42-6.6,49.6-3.8s56.4,24,67.9,55.8
	s-2.9,52.9-2.9,52.9s-12.4,25-66.9,35.6S4.3,121.5,1.5,83z"/>
<path class="st1" d="M106.4,40.8c-0.3-0.3-0.6-0.4-1-0.4H71c-0.8,0-1.4,0.7-1.4,1.4c0,0,0,0,0,0V46l-13.2,3.7c-0.8,0.2-1.2,1-1,1.8
	l6.9,26.5l-5.9,6.2c-0.8-1.2-2.1-1.9-3.5-1.9H39.4c-2.4,0-4.2,2-4.2,4.3v23.6c0,2.4,1.8,4.3,4.2,4.3h13.4c2,0,3.6-1.4,4.1-3.3
	l1.7,1.5c1.3,1.2,2.9,1.8,4.6,1.8h42.2c0.8,0,1.4-0.7,1.4-1.4c0,0,0,0,0,0V41.9C106.9,41.5,106.7,41.1,106.4,40.8z M54.2,110.1
	c0,0.8-0.6,1.4-1.4,1.4c0,0,0,0,0,0H39.4c-0.8,0-1.4-0.6-1.4-1.4c0,0,0,0,0,0V86.5c0-0.8,0.6-1.4,1.4-1.4c0,0,0,0,0,0h5.3v16.6
	c0,0.8,0.6,1.4,1.4,1.4s1.4-0.6,1.4-1.4c0,0,0,0,0,0V85.1h5.3c0.8,0,1.4,0.7,1.4,1.4c0,0,0,0,0,0L54.2,110.1L54.2,110.1z M58.4,52.1
	L69.6,49v5.3l-0.9,0.3c-0.4,0.1-0.7,0.3-0.8,0.7c-0.2,0.3-0.2,0.7-0.1,1.1c0.5,2.1-0.7,4.2-2.7,4.8c-0.4,0.1-0.7,0.3-0.8,0.7
	c-0.2,0.3-0.2,0.7-0.1,1.1l5.5,20.9h-2.8l-1.4-5.8c0-0.2-0.1-0.3-0.2-0.5L58.4,52.1z M69.6,61v12.2l-2.6-9.8
	C68.1,62.9,69,62,69.6,61z M89.7,111.6H63.2c-1,0-2-0.4-2.8-1.1l-3.4-3v-20l6.1-6.3l1.1,4.5c0.1,0.6,0.7,1.1,1.3,1.1h27.5
	c1.1,0,2,0.9,2,2s-0.9,2-2,2H79c-0.8,0.1-1.4,0.8-1.3,1.6c0.1,0.7,0.6,1.3,1.3,1.3h18.5c1.1,0,2,0.9,2,2s-0.9,2-2,2H79
	c-0.8,0.1-1.4,0.8-1.3,1.6c0.1,0.7,0.6,1.3,1.3,1.3h15.5c1.1,0,2,0.9,2,2s-0.9,2-2,2H79c-0.8,0.1-1.4,0.8-1.3,1.6
	c0.1,0.7,0.6,1.3,1.3,1.3h10.7c1.1,0,2,0.9,2,2s-0.9,2-2,2V111.6z M104.1,111.6h-10c0.6-1.3,0.6-2.7,0-4h0.4c2.7,0,4.8-2.2,4.8-4.9
	c0-0.8-0.2-1.5-0.5-2.2c2.1-0.6,3.5-2.6,3.5-4.7c0-1.1-0.3-2.1-0.9-2.9V74.4c0-0.8-0.6-1.4-1.4-1.4s-1.4,0.6-1.4,1.4v16.5
	c-0.3-0.1-0.7-0.1-1-0.1h-0.1c0.3-0.6,0.4-1.3,0.4-2c0-2.7-2.1-4.9-4.8-4.9h-2.3c2.5-1.1,4.1-3.6,4.1-6.4c0.1-3.7-2.7-6.8-6.4-7
	s-6.8,2.7-7,6.4c0,0.2,0,0.3,0,0.5c0,2.7,1.6,5.2,4.1,6.4H78V56.3c2.5-0.6,4.5-2.6,5-5.2h10.5c0.5,2.6,2.5,4.6,5,5.2v4.5
	c0,0.8,0.6,1.4,1.4,1.4s1.4-0.6,1.4-1.4V55c0-0.8-0.6-1.4-1.4-1.4c0,0,0,0,0,0c-2.1,0-3.8-1.8-3.8-3.9c0-0.8-0.6-1.4-1.4-1.5h-13
	c-0.8,0-1.4,0.7-1.4,1.5c0,2.1-1.7,3.8-3.8,3.9c-0.8,0-1.4,0.6-1.4,1.4c0,0,0,0,0,0v28.8h-2.7V43.3h31.6V111.6z M88.2,81.4
	c-2.2,0.1-4-1.7-4.1-3.9c-0.1-2.2,1.7-4,3.9-4.1c2.2-0.1,4,1.7,4.1,3.9c0,0,0,0.1,0,0.1C92.1,79.6,90.4,81.4,88.2,81.4z"/>
</svg>
