<?xml version="1.0" encoding="utf-8"?>
<!-- Generator: Adobe Illustrator 22.0.1, SVG Export Plug-In . SVG Version: 6.00 Build 0)  -->
<svg version="1.1" id="Layer_1" xmlns="http://www.w3.org/2000/svg" xmlns:xlink="http://www.w3.org/1999/xlink" x="0px" y="0px"
	 viewBox="0 0 157 154" style="enable-background:new 0 0 157 154;" xml:space="preserve">
<style type="text/css">
	.st0{fill:url(#SVGID_1_);}
	.st1{fill:#7D1716;}
</style>
<title>plan</title>
<linearGradient id="SVGID_1_" gradientUnits="userSpaceOnUse" x1="0.9257" y1="78.5883" x2="156.0014" y2="78.5883" gradientTransform="matrix(1 0 0 -1 0 156)">
	<stop  offset="0" style="stop-color:#FF5779"/>
	<stop  offset="1" style="stop-color:#FF521E"/>
</linearGradient>
<path class="st0" d="M2.2,65.9c0,0,10.8-106.9,116.7-46.5c54.9,33.7,48.1,110.9-14.7,128.7S-7.6,145.1,2.2,65.9z"/>
<path class="st1" d="M50.2,91.6c-0.7-0.3-1.5,0.1-1.8,0.8c-0.5,1.4-2.1,2.1-3.5,1.5c-0.4-0.1-0.7-0.4-0.9-0.6
	c-0.3-0.3-0.5-0.6-0.6-0.9c-0.3-0.7-1.1-1-1.8-0.8c0,0,0,0,0,0c-0.7,0.3-1,1.1-0.8,1.8c1.1,2.8,4.3,4.2,7,3c1.4-0.6,2.5-1.7,3-3
	C51.2,92.7,50.8,91.9,50.2,91.6z"/>
<path class="st1" d="M40.8,85.5c-0.8,0-1.4,0.6-1.4,1.4v0.5c0,0.8,0.6,1.4,1.4,1.4c0.8,0,1.4-0.6,1.4-1.4v-0.5
	C42.2,86.1,41.6,85.5,40.8,85.5z"/>
<path class="st1" d="M50.9,85.5c-0.8,0-1.4,0.6-1.4,1.4v0.5c0,0.8,0.6,1.4,1.4,1.4c0.8,0,1.4-0.6,1.4-1.4v-0.5
	C52.3,86.1,51.7,85.5,50.9,85.5z"/>
<path class="st1" d="M53.8,100.4c1.8-1.7,3-4,3.4-6.5h1.1c2.1,0,3.8-1.7,3.8-3.8c0,0,0,0,0,0v-1.1c0-2.1-1.7-3.7-3.7-3.8h-0.9v-4.2
	l0,0v-5.6c0-3.9-3.1-7.1-7-7.1h-6.9c-1.7,0-3.1,1.2-3.2,2.9h-1.6c-2.3,0-4.1,1.9-4.1,4.1v5.6l0,0v4.2h-0.9c-2.1,0-3.7,1.7-3.7,3.8
	v1.1c0,2.1,1.7,3.7,3.7,3.8h1.1c0.6,3.6,2.9,6.7,6.1,8.4v0.9h-0.1c-4.9,0-9,3.7-9.5,8.6l-1,9.2c-0.1,1,0.6,1.8,1.5,1.9
	c0.1,0,0.1,0,0.2,0h28.1c0.5,0,1-0.2,1.3-0.6c0.3-0.4,0.5-0.9,0.4-1.4l-1.1-9.2c-0.5-4.8-4.6-8.5-9.5-8.6l0,0v-0.9
	C52.1,101.8,53,101.2,53.8,100.4z M37.1,75.4c0-0.8,0.6-1.4,1.4-1.4h3c0.8,0,1.4-0.6,1.4-1.4c0,0,0,0,0,0v-1c0-0.3,0.2-0.5,0.5-0.5
	h6.9c2.4,0,4.3,2,4.3,4.4c0,0,0,0,0,0v5h-7.3c-0.2,0-0.3-0.1-0.4-0.2l-3.6-2.8c-0.4-0.3-0.8-0.4-1.3-0.4c-0.2,0-0.3,0-0.5,0
	c-0.6,0.2-1.2,0.6-1.4,1.2L39.3,80c-0.1,0.3-0.4,0.4-0.7,0.4h-1.5V75.4z M51.1,106c3.5,0,6.4,2.6,6.8,6.1l0.9,8h-2.6v-5.9
	c0-0.8-0.6-1.4-1.4-1.4c-0.8,0-1.4,0.6-1.4,1.4v5.9H38.2v-5.9c0-0.8-0.6-1.4-1.4-1.4c-0.8,0-1.4,0.6-1.4,1.4v5.9h-2.6l0.9-8
	c0.4-3.5,3.3-6.1,6.8-6.1h0.1c0,2.8,2.3,5.1,5.1,5.1c1.4,0,2.7-0.5,3.6-1.5c1-1,1.5-2.3,1.5-3.6L51.1,106z M43.5,106v-2.7
	c0.8,0.2,1.6,0.3,2.4,0.3c0.8,0,1.6-0.1,2.4-0.3v2.6c0,1.3-1.1,2.4-2.4,2.4C44.5,108.4,43.5,107.3,43.5,106L43.5,106z M45.9,100.9
	c-4.7,0-8.5-3.7-8.7-8.4c0-0.7-0.6-1.3-1.4-1.3h-2.3c-0.6,0-1-0.4-1-1v-1.1c0-0.6,0.4-1,1-1h2.3c0.8,0,1.4-0.6,1.4-1.4c0,0,0,0,0,0
	v-3.5h1.5c1.4,0,2.6-0.8,3.1-2.1l0.4-1l3,2.3c0.6,0.5,1.3,0.7,2.1,0.7h7.3v3.5c0,0.7,0.6,1.4,1.3,1.4h2.3c0.6,0,1,0.4,1,1v1.1
	c0,0.6-0.4,1-1,1h-2.3c-0.7,0-1.3,0.6-1.4,1.3c-0.1,2.2-1.1,4.4-2.7,5.9C50.3,100,48.1,100.8,45.9,100.9L45.9,100.9z"/>
<path class="st1" d="M110.5,91.6c-0.7-0.3-1.5,0.1-1.8,0.7c0,0,0,0,0,0c-0.6,1.4-2.1,2.1-3.5,1.5c-0.7-0.3-1.2-0.8-1.5-1.5
	c-0.2-0.7-1-1.1-1.7-0.9c-0.7,0.2-1.1,1-0.9,1.7c0,0.1,0,0.1,0.1,0.2c1.1,2.8,4.2,4.2,7,3.1c1.4-0.6,2.5-1.7,3.1-3.1
	C111.5,92.7,111.1,91.9,110.5,91.6z"/>
<path class="st1" d="M101.1,85.5c-0.8,0-1.4,0.6-1.4,1.4v0.5c-0.1,0.8,0.5,1.4,1.2,1.5c0.8,0.1,1.4-0.5,1.5-1.2c0-0.1,0-0.2,0-0.3
	v-0.5C102.5,86.1,101.9,85.5,101.1,85.5z"/>
<path class="st1" d="M111.2,85.5c-0.8,0-1.4,0.6-1.4,1.4v0.5c0,0.8,0.6,1.4,1.4,1.4s1.4-0.6,1.4-1.4c0,0,0,0,0,0v-0.5
	C112.6,86.1,112,85.5,111.2,85.5z"/>
<path class="st1" d="M114,100.4c1.8-1.7,3-4,3.4-6.5h1.1c2.1,0,3.7-1.7,3.7-3.8v-1.1c0-2.1-1.7-3.7-3.7-3.8h-0.9v-3.7l0,0V78
	c0-5.6-4.5-10.2-10.2-10.3H92.9c-0.8,0-1.4,0.6-1.4,1.4v6.5c0,2.4,1.2,4.7,3.2,6.1v3.6h-0.9c-2.1,0-3.7,1.7-3.7,3.8v1.1
	c0,2.1,1.7,3.7,3.7,3.8h1.1c0.6,3.6,2.9,6.7,6.1,8.4v0.9l0,0c-4.9,0-9,3.7-9.5,8.6l-1.1,9.2c-0.1,0.5,0.1,1,0.4,1.4
	c0.3,0.4,0.8,0.6,1.3,0.6h28.1c1,0,1.7-0.8,1.7-1.7c0-0.1,0-0.1,0-0.2l-1.1-9.2c-0.5-4.9-4.6-8.5-9.5-8.6l0,0v-0.9
	C112.3,101.9,113.3,101.2,114,100.4z M94.3,75.6v-5.1h13.2c4.1,0,7.5,3.4,7.4,7.5v2.1H98.7C96.3,80.1,94.3,78.1,94.3,75.6
	C94.3,75.6,94.3,75.6,94.3,75.6z M111.4,106c3.5,0,6.4,2.6,6.8,6.1l0.9,8h-2.6v-5.9c0-0.8-0.6-1.4-1.4-1.4c-0.8,0-1.4,0.6-1.4,1.4
	c0,0,0,0,0,0v5.9H98.5v-5.9c0-0.8-0.6-1.4-1.4-1.4c-0.8,0-1.4,0.6-1.4,1.4c0,0,0,0,0,0v5.9h-2.6l0.9-8c0.4-3.5,3.3-6.1,6.8-6.1h0.1
	c0,2.8,2.3,5.1,5.1,5.1c1.4,0,2.7-0.5,3.6-1.5C110.8,108.7,111.3,107.4,111.4,106L111.4,106z M103.7,106v-2.7
	c0.8,0.2,1.6,0.3,2.4,0.3c0.8,0,1.6-0.1,2.4-0.3v2.6c0,1.3-1.1,2.4-2.4,2.4S103.7,107.3,103.7,106L103.7,106z M109.4,100.2
	L109.4,100.2c-1,0.4-2.1,0.6-3.2,0.6c-4.6,0-8.5-3.7-8.7-8.3c0-0.7-0.6-1.3-1.4-1.3h-2.3c-0.6,0-1-0.4-1-1v-1.1c0-0.6,0.4-1,1-1H96
	c0.8,0,1.4-0.6,1.4-1.4c0,0,0,0,0,0v-3.9c0.4,0.1,0.9,0.1,1.3,0.1h16.1v3.8c0,0.8,0.6,1.4,1.4,1.4c0,0,0,0,0,0h2.3c0.6,0,1,0.4,1,1
	v1.1c0,0.6-0.4,1-1,1h-2.3c-0.7,0-1.3,0.6-1.3,1.3c-0.1,2.2-1.1,4.4-2.7,5.9C111.4,99.2,110.4,99.8,109.4,100.2z"/>
<path class="st1" d="M106.2,55c-0.8,0-1.4,0.6-1.4,1.4v2c0,0.8,0.6,1.4,1.4,1.4c0.8,0,1.4-0.6,1.4-1.4c0,0,0,0,0,0v-2
	C107.5,55.7,106.9,55,106.2,55z"/>
<path class="st1" d="M105,50.7c-0.7-0.5-1.6-0.8-2.4-1c-0.8,0-1.4,0.6-1.4,1.4c0,0.6,0.4,1.1,1,1.3c0.4,0.1,0.9,0.3,1.2,0.5
	c0.2,0.2,0.5,0.3,0.8,0.2c0.4,0,0.9-0.2,1.1-0.6C105.8,52,105.6,51.2,105,50.7z"/>
<path class="st1" d="M106.2,62.3c-0.8,0-1.4,0.6-1.4,1.4c0,0,0,0,0,0v0.9c0,0.8,0.6,1.4,1.4,1.4c0.8,0,1.4-0.6,1.4-1.4c0,0,0,0,0,0
	v-0.9C107.5,62.9,107,62.3,106.2,62.3C106.2,62.3,106.2,62.3,106.2,62.3z"/>
<path class="st1" d="M45.9,62.3c-0.8,0-1.4,0.6-1.4,1.4c0,0,0,0,0,0v0.9c0,0.8,0.6,1.4,1.4,1.4c0.8,0,1.4-0.6,1.4-1.4v-0.9
	C47.3,62.9,46.7,62.3,45.9,62.3C45.9,62.3,45.9,62.3,45.9,62.3z"/>
<path class="st1" d="M45.9,55c-0.8,0-1.4,0.6-1.4,1.4c0,0,0,0,0,0v2c0,0.8,0.6,1.4,1.4,1.4c0.8,0,1.4-0.6,1.4-1.4v-2
	C47.2,55.7,46.6,55,45.9,55C45.9,55,45.9,55,45.9,55z"/>
<path class="st1" d="M50.9,50.9c-0.1-0.8-0.8-1.3-1.5-1.2c0,0,0,0,0,0c-0.9,0.1-1.7,0.5-2.4,1c-0.6,0.4-0.8,1.3-0.3,1.9
	c0.3,0.4,0.7,0.6,1.1,0.6c0.3,0,0.6-0.1,0.8-0.2c0.4-0.3,0.8-0.4,1.2-0.5C50.4,52.3,51,51.6,50.9,50.9z"/>
<path class="st1" d="M97.7,49.7C97.1,38.2,87.6,29.2,76,29.1c-5.5,0-10.8,2.1-14.8,5.9c-0.5,0.5-0.5,1.4,0,1.9
	c0.5,0.5,1.3,0.6,1.9,0.1c0,0,0,0,0,0c3.5-3.3,8.2-5.2,13-5.2c10.6-0.1,19.2,8.4,19.3,19c0.1,10.6-8.4,19.2-19,19.3
	c-10.6,0.1-19.2-8.4-19.3-19c0-3.5,0.9-7,2.8-10c0.4-0.7,0.2-1.5-0.5-1.9c-0.6-0.4-1.5-0.2-1.9,0.5c0,0,0,0,0,0
	c-1.8,3.1-2.9,6.5-3.1,10.1c-0.6,0.2-1,0.7-0.9,1.3c0,0.6,0.3,1.2,0.9,1.4c0.6,12,10.7,21.2,22.7,20.7c11.2-0.5,20.1-9.5,20.7-20.7
	c0.7-0.2,1.1-1,0.9-1.8C98.4,50.3,98.1,49.9,97.7,49.7L97.7,49.7z"/>
<path class="st1" d="M81.9,45.1c-1.6-1.6-3.8-2.5-6.1-2.4c-4.3,0.1-7.8,3.5-8.1,7.7c-0.2,2.8,1,5.6,3.2,7.4V60c0,0.8,0.5,1.6,1.2,2
	v1.5c0,2.2,1.8,4,4,4c2.2,0,4-1.8,4-4c0,0,0,0,0,0v-1.5c0.7-0.4,1.2-1.2,1.2-2v-2.2c3.7-2.9,4.2-8.3,1.3-12
	C82.3,45.7,82.1,45.4,81.9,45.1z M77.3,63.6L77.3,63.6c0,0.7-0.6,1.3-1.3,1.3s-1.3-0.6-1.3-1.3v-1.2h2.5V63.6z M79,56.1
	c-0.4,0.3-0.6,0.7-0.6,1.2v2.5h-4.9v-2.6c0-0.4-0.2-0.8-0.6-1.1c-2.7-1.7-3.4-5.3-1.7-7.9c1-1.6,2.7-2.5,4.6-2.6
	c1.5-0.1,3,0.5,4.1,1.6c2.3,2.2,2.3,5.9,0,8.1C79.7,55.6,79.4,55.8,79,56.1z"/>
<path class="st1" d="M76,36.3c-0.8,0-1.4,0.6-1.4,1.4v1.4c0,0.8,0.6,1.4,1.4,1.4c0.8,0,1.4-0.6,1.4-1.4c0,0,0,0,0,0v-1.4
	C77.4,36.9,76.8,36.3,76,36.3z"/>
<path class="st1" d="M71.2,40.3l-0.7-1.2c-0.4-0.7-1.2-0.9-1.9-0.5c0,0,0,0,0,0c-0.6,0.4-0.9,1.2-0.5,1.9l0.7,1.2
	c0.2,0.4,0.7,0.7,1.2,0.7c0.2,0,0.5-0.1,0.7-0.2C71.4,41.8,71.6,40.9,71.2,40.3z"/>
<path class="st1" d="M83.3,38.5c-0.7-0.4-1.5-0.1-1.9,0.5c0,0,0,0,0,0l-0.7,1.2c-0.4,0.7-0.2,1.5,0.5,1.9c0.2,0.1,0.4,0.2,0.7,0.2
	c0.5,0,1-0.3,1.2-0.7l0.7-1.2C84.2,39.7,84,38.8,83.3,38.5z"/>
</svg>
