<svg id="Layer_1" data-name="Layer 1" xmlns="http://www.w3.org/2000/svg" xmlns:xlink="http://www.w3.org/1999/xlink" viewBox="0 0 157 154"><defs><style>.cls-1{fill:url(#linear-gradient);}.cls-2{fill:#7d1716;}</style><linearGradient id="linear-gradient" x1="0.92" y1="77.41" x2="156" y2="77.41" gradientUnits="userSpaceOnUse"><stop offset="0" stop-color="#ff5779"/><stop offset="1" stop-color="#ff521e"/></linearGradient></defs><title>plan</title><path class="cls-1" d="M2.18,65.86S13-41.09,118.86,19.32C173.77,53,166.91,130.23,104.15,148.05S-7.63,145.08,2.18,65.86Z"/><path class="cls-2" d="M54.23,90.24a1.12,1.12,0,0,0-1.45.62,2.23,2.23,0,0,1-3.67.75,2.17,2.17,0,0,1-.49-.74,1.12,1.12,0,0,0-1.46-.63,1.14,1.14,0,0,0-.62,1.47,4.47,4.47,0,0,0,8.31,0A1.14,1.14,0,0,0,54.23,90.24Z"/><path class="cls-2" d="M46.54,85.21a1.13,1.13,0,0,0-1.12,1.13v.41a1.12,1.12,0,1,0,2.24,0v-.41A1.13,1.13,0,0,0,46.54,85.21Z"/><path class="cls-2" d="M54.85,85.21a1.13,1.13,0,0,0-1.12,1.13v.41a1.12,1.12,0,1,0,2.24,0v-.41A1.13,1.13,0,0,0,54.85,85.21Z"/><path class="cls-2" d="M57.2,97.5A9.52,9.52,0,0,0,60,92.18h.91A3.09,3.09,0,0,0,64,89.09v-.93a3.09,3.09,0,0,0-3.06-3.09h-.78V81.58h0V77a5.82,5.82,0,0,0-5.79-5.84H48.66A2.65,2.65,0,0,0,46,73.53H44.66a3.4,3.4,0,0,0-3.38,3.41v4.63h0v3.49H40.5a3.08,3.08,0,0,0-3.06,3.09v.93a3.08,3.08,0,0,0,3.06,3.09h.91a9.52,9.52,0,0,0,5.05,6.93v.74h-.05a7.92,7.92,0,0,0-7.84,7.05l-.86,7.54a1.44,1.44,0,0,0,1.41,1.6H62.28a1.44,1.44,0,0,0,1.06-.48,1.48,1.48,0,0,0,.35-1.12l-.87-7.54A7.92,7.92,0,0,0,55,99.85h0v-.74A9.66,9.66,0,0,0,57.2,97.5ZM43.52,76.94a1.15,1.15,0,0,1,1.14-1.15h2.47a1.12,1.12,0,0,0,1.12-1.13v-.83a.42.42,0,0,1,.41-.42h5.67A3.57,3.57,0,0,1,57.88,77v4.08h-6a.59.59,0,0,1-.36-.13l-2.93-2.31a1.79,1.79,0,0,0-1.08-.37,2.1,2.1,0,0,0-.43,0,1.77,1.77,0,0,0-1.18,1l-.62,1.4a.58.58,0,0,1-.54.36H43.52ZM55,102.11a5.68,5.68,0,0,1,5.62,5l.75,6.61H59.22v-4.86a1.12,1.12,0,1,0-2.24,0v4.86H44.42v-4.86a1.12,1.12,0,1,0-2.24,0v4.86H40l.76-6.61a5.67,5.67,0,0,1,5.61-5h.05a4.27,4.27,0,0,0,4.24,4.24,4.17,4.17,0,0,0,3-1.25,4.28,4.28,0,0,0,1.24-3Zm-6.28,0V99.91a9.43,9.43,0,0,0,2,.21,8.8,8.8,0,0,0,2-.22v2.17a2,2,0,1,1-4,0Zm2-4.21A7.21,7.21,0,0,1,43.53,91a1.13,1.13,0,0,0-1.12-1.08H40.5a.82.82,0,0,1-.82-.82v-.93a.82.82,0,0,1,.82-.82h1.9a1.13,1.13,0,0,0,1.12-1.14V83.33h1.26a2.84,2.84,0,0,0,2.59-1.7l.37-.83,2.45,1.93a2.86,2.86,0,0,0,1.73.6h6V86.2A1.13,1.13,0,0,0,59,87.34h1.9a.82.82,0,0,1,.82.82v.93a.82.82,0,0,1-.82.82H59A1.13,1.13,0,0,0,57.87,91a7.27,7.27,0,0,1-2.22,4.87A7.11,7.11,0,0,1,50.7,97.86Z"/><path class="cls-2" d="M103.88,90.24a1.12,1.12,0,0,0-1.46.62,2.24,2.24,0,0,1-4.16,0,1.12,1.12,0,1,0-2.07.84,4.46,4.46,0,0,0,8.3,0A1.14,1.14,0,0,0,103.88,90.24Z"/><path class="cls-2" d="M96.19,85.21a1.14,1.14,0,0,0-1.13,1.13v.41a1.13,1.13,0,1,0,2.25,0v-.41A1.13,1.13,0,0,0,96.19,85.21Z"/><path class="cls-2" d="M104.5,85.21a1.13,1.13,0,0,0-1.12,1.13v.41a1.12,1.12,0,1,0,2.24,0v-.41A1.13,1.13,0,0,0,104.5,85.21Z"/><path class="cls-2" d="M106.84,97.5a9.52,9.52,0,0,0,2.79-5.32h.91a3.09,3.09,0,0,0,3.06-3.09v-.93a3.09,3.09,0,0,0-3.06-3.09h-.78V82h0V79.09a8.42,8.42,0,0,0-8.37-8.45h-12a1.13,1.13,0,0,0-1.12,1.13v5.34a6,6,0,0,0,2.6,5v3h-.78a3.09,3.09,0,0,0-3.06,3.09v.93a3.09,3.09,0,0,0,3.06,3.09h.91a9.51,9.51,0,0,0,5.06,6.93v.74h0a7.92,7.92,0,0,0-7.84,7.05l-.87,7.54a1.48,1.48,0,0,0,.35,1.12,1.44,1.44,0,0,0,1.06.48h23.16a1.43,1.43,0,0,0,1.41-1.6l-.87-7.54a7.9,7.9,0,0,0-7.83-7.05h0v-.74A9.82,9.82,0,0,0,106.84,97.5ZM90.56,77.11V72.9h10.83a6.17,6.17,0,0,1,6.13,6.19v1.73H94.23A3.69,3.69,0,0,1,90.56,77.11Zm14.07,25a5.67,5.67,0,0,1,5.61,5l.76,6.61h-2.14v-4.86a1.12,1.12,0,1,0-2.24,0v4.86H94.06v-4.86a1.12,1.12,0,1,0-2.24,0v4.86H89.69l.75-6.61a5.67,5.67,0,0,1,5.61-5h.06a4.26,4.26,0,0,0,4.23,4.24,4.15,4.15,0,0,0,3-1.25,4.2,4.2,0,0,0,1.24-3Zm-6.28,0V99.91a9.33,9.33,0,0,0,2,.21,8.73,8.73,0,0,0,2-.22v2.17a2,2,0,1,1-4,0ZM103,97.33h0a7.09,7.09,0,0,1-2.67.52A7.21,7.21,0,0,1,93.17,91a1.13,1.13,0,0,0-1.12-1.08H90.14a.82.82,0,0,1-.82-.82v-.93a.82.82,0,0,1,.82-.82H92a1.13,1.13,0,0,0,1.12-1.14V83a5.39,5.39,0,0,0,1.07.1h13.29V86.2a1.13,1.13,0,0,0,1.12,1.14h1.9a.82.82,0,0,1,.82.82v.93a.82.82,0,0,1-.82.82h-1.91A1.12,1.12,0,0,0,107.51,91a7.27,7.27,0,0,1-2.22,4.87A7.1,7.1,0,0,1,103,97.33Z"/><path class="cls-2" d="M100.34,60.15a1.13,1.13,0,0,0-1.12,1.13v1.65a1.12,1.12,0,1,0,2.24,0V61.28A1.13,1.13,0,0,0,100.34,60.15Z"/><path class="cls-2" d="M99.43,56.59a4.78,4.78,0,0,0-2-.8A1.13,1.13,0,0,0,97.11,58a2.49,2.49,0,0,1,1,.42,1,1,0,0,0,.63.2,1.14,1.14,0,0,0,.93-.48A1.15,1.15,0,0,0,99.43,56.59Z"/><path class="cls-2" d="M100.34,66.09a1.12,1.12,0,0,0-1.12,1.13V68a1.12,1.12,0,1,0,2.24,0v-.75A1.12,1.12,0,0,0,100.34,66.09Z"/><path class="cls-2" d="M50.7,66.09a1.12,1.12,0,0,0-1.12,1.13V68a1.12,1.12,0,1,0,2.24,0v-.75A1.12,1.12,0,0,0,50.7,66.09Z"/><path class="cls-2" d="M50.7,60.15a1.13,1.13,0,0,0-1.12,1.14v1.64a1.12,1.12,0,1,0,2.24,0V61.29A1.13,1.13,0,0,0,50.7,60.15Z"/><path class="cls-2" d="M54.86,56.74a1.13,1.13,0,0,0-1.28-1,4.86,4.86,0,0,0-2,.8,1.15,1.15,0,0,0-.28,1.58,1.13,1.13,0,0,0,.92.48,1.08,1.08,0,0,0,.64-.2,2.43,2.43,0,0,1,1-.42A1.14,1.14,0,0,0,54.86,56.74Z"/><path class="cls-2" d="M93.38,55.79a18,18,0,0,0-17.86-17A17.76,17.76,0,0,0,63.3,43.66a1.14,1.14,0,0,0,0,1.6,1.1,1.1,0,0,0,1.58.05,15.55,15.55,0,0,1,10.69-4.25,15.77,15.77,0,1,1-13.39,7.62,1.15,1.15,0,0,0-.38-1.56,1.12,1.12,0,0,0-1.54.38,18.12,18.12,0,0,0-2.55,8.29,1.11,1.11,0,0,0-.78,1.08A1.13,1.13,0,0,0,57.66,58a17.88,17.88,0,0,0,35.72,0,1.14,1.14,0,0,0,0-2.16Z"/><path class="cls-2" d="M80.33,52a6.85,6.85,0,0,0-5-2,6.94,6.94,0,0,0-6.68,6.38,7,7,0,0,0,2.64,6.09v1.79a1.94,1.94,0,0,0,1,1.67V67.2a3.28,3.28,0,1,0,6.56,0V66a1.94,1.94,0,0,0,1-1.67V62.49A7,7,0,0,0,80.33,52ZM76.56,67.2h0a1,1,0,1,1-2.08,0v-1h2.08ZM78,61a1.15,1.15,0,0,0-.52.95V64h-4V61.9A1.14,1.14,0,0,0,73,61a4.71,4.71,0,0,1,2.37-8.66,4.58,4.58,0,0,1,3.39,1.33A4.73,4.73,0,0,1,78,61Z"/><path class="cls-2" d="M75.52,44.74a1.13,1.13,0,0,0-1.12,1.13v1.19a1.12,1.12,0,1,0,2.24,0V45.87A1.13,1.13,0,0,0,75.52,44.74Z"/><path class="cls-2" d="M71.6,48l-.59-1a1.12,1.12,0,0,0-1.53-.42,1.15,1.15,0,0,0-.41,1.55l.59,1a1.13,1.13,0,0,0,1,.57,1.06,1.06,0,0,0,.56-.16A1.13,1.13,0,0,0,71.6,48Z"/><path class="cls-2" d="M81.56,46.5a1.12,1.12,0,0,0-1.53.42l-.59,1a1.13,1.13,0,0,0,.41,1.54,1,1,0,0,0,.56.16,1.14,1.14,0,0,0,1-.57l.59-1A1.15,1.15,0,0,0,81.56,46.5Z"/></svg>